<svg width="115" height="164" viewBox="0 0 115 164" fill="none" xmlns="http://www.w3.org/2000/svg">
<path d="M112.125 99.8967V2H57.1248H2.12476V50.9484V99.8967C2.12476 130.309 52.847 162 56.2081 162C59.5692 162 112.125 130.309 112.125 99.8967Z" stroke="white" stroke-width="4"/>
<circle cx="32.023" cy="61.7247" r="1.24717" transform="rotate(15 32.023 61.7247)" stroke="white" stroke-width="2"/>
<path d="M83.3775 2H75.9796L2 98.8053C2 116.687 20.762 134.345 34.0578 145.05C57.3065 114.171 87.0765 74.7581 110.503 43.9284V22.3476V2H83.3775Z" stroke="white" stroke-width="4"/>
<path d="M49.1832 108.27C60.5935 111.328 72.3218 104.556 75.3791 93.1462C78.4365 81.7359 71.6652 70.0076 60.2549 66.9503C53.5011 65.1406 46.6359 66.7744 41.5233 70.7756C41.5233 70.7756 16.9668 89.2442 12.1089 80.3893C10.0807 76.6921 24.3073 71.0044 19.7466 58.8721C23.378 45.3196 34.5482 36.3987 46.0037 32.9185C54.348 25.1478 67.7648 17.9617 78.7876 20.9152C84.7216 23.3445 73.316 31.4569 82.3398 39.9432C116.561 65.7041 92.1865 109.206 66.2832 111.432C73.3737 124.242 60.3612 132.57 58.0014 130.775C59.3035 123.506 53.1609 120.892 56.1216 113.938C57.5141 110.668 49.1832 108.27 49.1832 108.27Z" fill="#111111" stroke="white" stroke-width="2"/>
<path d="M75.3792 93.1462C74.8 95.3078 73.9096 97.3029 72.7691 99.0963C69.7003 103.922 64.8207 107.287 59.3212 108.503C56.0762 109.22 52.6154 109.19 49.1833 108.27C48.8196 108.173 48.4607 108.067 48.1066 107.952C38.0845 104.703 31.9724 94.6311 33.5807 84.335C33.6983 83.5818 33.8573 82.8274 34.0591 82.0745C34.7101 79.6447 35.7543 77.4254 37.1049 75.4664C40.4012 70.6856 45.5223 67.4561 51.2066 66.5065C54.131 66.018 57.2043 66.1328 60.255 66.9503C70.8709 69.7948 77.4714 80.1451 75.8766 90.7617C75.7573 91.556 75.5921 92.3519 75.3792 93.1462Z" fill="#111111"/>
<path d="M60.255 66.9503C57.2043 66.1328 54.131 66.018 51.2066 66.5065M60.255 66.9503L64.0592 70.1M60.255 66.9503C70.8709 69.7948 77.4714 80.1451 75.8766 90.7617M51.2066 66.5065L50.3461 69.7181M51.2066 66.5065C45.5223 67.4561 40.4012 70.6856 37.1049 75.4664M50.3461 69.7181L42.4915 74.4566M50.3461 69.7181L58.2119 72.4067M42.4915 74.4566L37.1049 75.4664M42.4915 74.4566L42.9405 81.9365M37.1049 75.4664C35.7543 77.4254 34.7101 79.6447 34.0591 82.0745C33.8573 82.8274 33.6983 83.5818 33.5807 84.335M42.9405 81.9365L37.3779 87.9993M42.9405 81.9365L50.8256 85.2759M37.3779 87.9993L33.5807 84.335M37.3779 87.9993L39.4434 97.3972M33.5807 84.335C31.9724 94.6311 38.0845 104.703 48.1066 107.952M39.4434 97.3972L38.4912 100.951M39.4434 97.3972L47.4135 100.178M47.4135 100.178L50.4796 105.842M47.4135 100.178L52.9115 94.3565M50.4796 105.842L48.1066 107.952M50.4796 105.842L59.3212 108.503M48.1066 107.952C48.4607 108.067 48.8196 108.173 49.1833 108.27C52.6154 109.19 56.0762 109.22 59.3212 108.503M52.9115 94.3565L50.8256 85.2759M52.9115 94.3565L62.6157 94.7617M50.8256 85.2759L58.5522 80.0512M58.5522 80.0512L58.2119 72.4067M58.5522 80.0512L65.8197 85.9365M58.2119 72.4067L64.0592 70.1M64.0592 70.1L72.1861 76.1511L71.9036 83.9515M65.8197 85.9365L71.9036 83.9515M65.8197 85.9365L62.6157 94.7617M71.9036 83.9515L75.8766 90.7617M75.8766 90.7617C75.7573 91.556 75.5921 92.3519 75.3792 93.1462C74.8 95.3078 73.9096 97.3029 72.7691 99.0963M62.6157 94.7617L65.5366 100.967M65.5366 100.967L72.7691 99.0963M65.5366 100.967L59.3212 108.503M72.7691 99.0963C69.7003 103.922 64.8207 107.287 59.3212 108.503" stroke="white" stroke-width="2"/>
<path d="M49.1832 108.268C60.5935 111.326 72.3218 104.554 75.3791 93.1439C78.4365 81.7337 71.6652 70.0054 60.2549 66.948C53.5011 65.1383 46.6359 66.7722 41.5233 70.7733C41.5233 70.7733 16.9668 89.242 12.1089 80.387C10.0807 76.6899 24.3073 71.0022 19.7466 58.8698C23.378 45.3173 34.5483 36.3965 46.0037 32.9162C55.0697 30.1619 70.7929 31.2488 82.3398 39.941C116.561 65.7019 92.1865 109.203 66.2832 111.43C73.3737 124.24 60.3612 132.567 58.0014 130.773C59.3035 123.504 53.1609 120.89 56.1216 113.936C57.5141 110.666 49.1832 108.268 49.1832 108.268Z" fill="#111111" stroke="white" stroke-width="2"/>
<path d="M56.9749 60.2142C52.6282 69.9865 61.0916 85.9255 68.2305 88.4764C73.7274 71.3564 71.8617 63.3828 56.9749 60.2142Z" fill="#111111" stroke="white" stroke-width="2"/>
<circle cx="31.3392" cy="60.0241" r="1.24717" transform="rotate(15 31.3392 60.0241)" fill="#D9D9D9" stroke="white" stroke-width="2"/>
</svg>
